name ./resultDataOpenSim/trcMotMarkerGrf/sub10/grf-02-05.mot
datacolumns 19
datarows 27
range 1.04400000 1.14800000
endheader

                time	     ground_force_vx	     ground_force_vy	     ground_force_vz	     ground_force_px	     ground_force_py	     ground_force_pz	   l_ground_force_vx	   l_ground_force_vy	   l_ground_force_vz	   l_ground_force_px	   l_ground_force_py	   l_ground_force_pz	     ground_torque_x	     ground_torque_y	     ground_torque_z	   l_ground_torque_x	   l_ground_torque_y	   l_ground_torque_z	
          1.04400000	          0.00000000	          0.00000000	          0.00000000	          0.00000000	          0.00000000	          0.00000000	         27.25817485	        514.32079563	         24.62292138	         -0.02375568	         -0.02499999	         -0.06432409	          0.00000000	          0.00000000	          0.00000000	          0.00000000	         -2.87635584	          0.00000000	
          1.04800000	          0.00000000	          0.00000000	          0.00000000	          0.00000000	          0.00000000	          0.00000000	         30.59652335	        524.28937795	         25.12285315	         -0.02306311	         -0.02499999	         -0.06389104	          0.00000000	          0.00000000	          0.00000000	          0.00000000	         -3.01427174	          0.00000000	
          1.05200000	          0.00000000	          0.00000000	          0.00000000	          0.00000000	          0.00000000	          0.00000000	         34.00986322	        534.86233457	         25.70697497	         -0.02234106	         -0.02499999	         -0.06343625	          0.00000000	          0.00000000	          0.00000000	          0.00000000	         -3.15489878	          0.00000000	
          1.05600000	          0.00000000	          0.00000000	          0.00000000	          0.00000000	          0.00000000	          0.00000000	         37.47938947	        545.98478476	         26.39957213	         -0.02163747	         -0.02499999	         -0.06297489	          0.00000000	          0.00000000	          0.00000000	          0.00000000	         -3.29756809	          0.00000000	
          1.06000000	          0.00000000	          0.00000000	          0.00000000	          0.00000000	          0.00000000	          0.00000000	         41.01396494	        557.52619578	         27.19337050	         -0.02100411	         -0.02499999	         -0.06254547	          0.00000000	          0.00000000	          0.00000000	          0.00000000	         -3.44188429	          0.00000000	
          1.06400000	          0.00000000	          0.00000000	          0.00000000	          0.00000000	          0.00000000	          0.00000000	         44.64850777	        569.33385945	         28.05887447	         -0.02051698	         -0.02499999	         -0.06221325	          0.00000000	          0.00000000	          0.00000000	          0.00000000	         -3.58787129	          0.00000000	
          1.06800000	          0.00000000	          0.00000000	          0.00000000	          0.00000000	          0.00000000	          0.00000000	         48.41867229	        581.35519070	         28.96264125	         -0.02022906	         -0.02499999	         -0.06202298	          0.00000000	          0.00000000	          0.00000000	          0.00000000	         -3.73597210	          0.00000000	
          1.07200000	          0.00000000	          0.00000000	          0.00000000	          0.00000000	          0.00000000	          0.00000000	         52.33984545	        593.66115497	         29.87413285	         -0.02010234	         -0.02499999	         -0.06195748	          0.00000000	          0.00000000	          0.00000000	          0.00000000	         -3.88682879	          0.00000000	
          1.07600000	          0.00000000	          0.00000000	          0.00000000	          0.00000000	          0.00000000	          0.00000000	         56.40545459	        606.33600812	         30.75986590	         -0.02003259	         -0.02499999	         -0.06195668	          0.00000000	          0.00000000	          0.00000000	          0.00000000	         -4.04087050	          0.00000000	
          1.08000000	          0.00000000	          0.00000000	          0.00000000	          0.00000000	          0.00000000	          0.00000000	         60.60297422	        619.39702436	         31.58616377	         -0.01993037	         -0.02499999	         -0.06195698	          0.00000000	          0.00000000	          0.00000000	          0.00000000	         -4.19786780	          0.00000000	
          1.08400000	          0.00000000	          0.00000000	          0.00000000	          0.00000000	          0.00000000	          0.00000000	         64.93373763	        632.82804098	         32.34322274	         -0.01976587	         -0.02499999	         -0.06191683	          0.00000000	          0.00000000	          0.00000000	          0.00000000	         -4.35667830	          0.00000000	
          1.08800000	          0.00000000	          0.00000000	          0.00000000	          0.00000000	          0.00000000	          0.00000000	         69.41433757	        646.64858180	         33.05855066	         -0.01953583	         -0.02499999	         -0.06180570	          0.00000000	          0.00000000	          0.00000000	          0.00000000	         -4.51533601	          0.00000000	
          1.09200000	          0.00000000	          0.00000000	          0.00000000	          0.00000000	          0.00000000	          0.00000000	         74.06784663	        660.94605492	         33.76985163	         -0.01922724	         -0.02499999	         -0.06161153	          0.00000000	          0.00000000	          0.00000000	          0.00000000	         -4.67147159	          0.00000000	
          1.09600000	          0.00000000	          0.00000000	          0.00000000	          0.00000000	          0.00000000	          0.00000000	         78.92789263	        675.85657516	         34.49041364	         -0.01884352	         -0.02499999	         -0.06135839	          0.00000000	          0.00000000	          0.00000000	          0.00000000	         -4.82291603	          0.00000000	
          1.10000000	          0.00000000	          0.00000000	          0.00000000	          0.00000000	          0.00000000	          0.00000000	         84.03392837	        691.47254566	         35.21263182	         -0.01839242	         -0.02499999	         -0.06107040	          0.00000000	          0.00000000	          0.00000000	          0.00000000	         -4.96828027	          0.00000000	
          1.10400000	          0.00000000	          0.00000000	          0.00000000	          0.00000000	          0.00000000	          0.00000000	         89.39215878	        707.69941976	         35.93687269	         -0.01789717	         -0.02499999	         -0.06076609	          0.00000000	          0.00000000	          0.00000000	          0.00000000	         -5.10728357	          0.00000000	
          1.10800000	          0.00000000	          0.00000000	          0.00000000	          0.00000000	          0.00000000	          0.00000000	         94.95605346	        724.20798494	         36.67283110	         -0.01740552	         -0.02499999	         -0.06046725	          0.00000000	          0.00000000	          0.00000000	          0.00000000	         -5.24062769	          0.00000000	
          1.11200000	          0.00000000	          0.00000000	          0.00000000	          0.00000000	          0.00000000	          0.00000000	        100.66573187	        740.56908576	         37.40517232	         -0.01693392	         -0.02499999	         -0.06019064	          0.00000000	          0.00000000	          0.00000000	          0.00000000	         -5.36936792	          0.00000000	
          1.11600000	          0.00000000	          0.00000000	          0.00000000	          0.00000000	          0.00000000	          0.00000000	        106.47583911	        756.42999923	         38.07968231	         -0.01645585	         -0.02499999	         -0.05992073	          0.00000000	          0.00000000	          0.00000000	          0.00000000	         -5.49402028	          0.00000000	
          1.12000000	          0.00000000	          0.00000000	          0.00000000	          0.00000000	          0.00000000	          0.00000000	        112.34226434	        771.57436360	         38.63066837	         -0.01596588	         -0.02499999	         -0.05963793	          0.00000000	          0.00000000	          0.00000000	          0.00000000	         -5.61383142	          0.00000000	
          1.12400000	          0.00000000	          0.00000000	          0.00000000	          0.00000000	          0.00000000	          0.00000000	        118.22684517	        785.87475409	         39.00744717	         -0.01546632	         -0.02499999	         -0.05932837	          0.00000000	          0.00000000	          0.00000000	          0.00000000	         -5.72653629	          0.00000000	
          1.12800000	          0.00000000	          0.00000000	          0.00000000	          0.00000000	          0.00000000	          0.00000000	        124.11671790	        799.23059796	         39.17651568	         -0.01494806	         -0.02499999	         -0.05898328	          0.00000000	          0.00000000	          0.00000000	          0.00000000	         -5.82865693	          0.00000000	
          1.13200000	          0.00000000	          0.00000000	          0.00000000	          0.00000000	          0.00000000	          0.00000000	        130.01747609	        811.55782260	         39.11471240	         -0.01439964	         -0.02499999	         -0.05860903	          0.00000000	          0.00000000	          0.00000000	          0.00000000	         -5.91614411	          0.00000000	
          1.13600000	          0.00000000	          0.00000000	          0.00000000	          0.00000000	          0.00000000	          0.00000000	        135.93751186	        822.79326520	         38.81029131	         -0.01381105	         -0.02499999	         -0.05821688	          0.00000000	          0.00000000	          0.00000000	          0.00000000	         -5.98504291	          0.00000000	
          1.14000000	          0.00000000	          0.00000000	          0.00000000	          0.00000000	          0.00000000	          0.00000000	        141.87948016	        832.84712770	         38.27093064	         -0.01319284	         -0.02499999	         -0.05782004	          0.00000000	          0.00000000	          0.00000000	          0.00000000	         -6.03195673	          0.00000000	
          1.14400000	          0.00000000	          0.00000000	          0.00000000	          0.00000000	          0.00000000	          0.00000000	        147.82470744	        841.55237502	         37.52861384	         -0.01256377	         -0.02499999	         -0.05742897	          0.00000000	          0.00000000	          0.00000000	          0.00000000	         -6.05430861	          0.00000000	
          1.14800000	          0.00000000	          0.00000000	          0.00000000	          0.00000000	          0.00000000	          0.00000000	        153.72435516	        848.69081252	         36.63565677	         -0.01192116	         -0.02499999	         -0.05703543	          0.00000000	          0.00000000	          0.00000000	          0.00000000	         -6.05053860	          0.00000000	
